<svg width="60" height="60" viewBox="0 0 60 60" fill="none" xmlns="http://www.w3.org/2000/svg">
<g clip-path="url(#clip0)">
<path d="M10.7939 39.7931L20.253 49.2054C20.7681 49.7205 21.7046 57.1661 21.1896 57.6811L19.3164 59.5543C18.8014 60.0693 17.9584 60.0693 17.4433 59.5543L16.4599 58.5708L8.96759 51.0785C5.92381 48.0347 2.83319 44.991 1.38157 43.4925L0.445014 42.5559C-0.0700503 42.0409 -0.0700503 41.1979 0.445014 40.6828L2.31813 38.8097C2.83319 38.2946 10.2787 39.278 10.7939 39.7931Z" fill="#999999"/>
<path d="M14.3059 5.65607C12.9011 5.65607 11.7303 6.82673 11.7303 8.23163C11.7303 9.63652 12.901 10.8072 14.3059 10.8072C15.7108 10.8072 16.8815 9.63652 16.8815 8.23163C16.8815 6.82673 15.7107 5.65607 14.3059 5.65607ZM22.2666 8.46562C20.8618 8.46562 19.691 9.63628 19.691 11.0412C19.691 12.4461 20.8617 13.6167 22.2666 13.6167C23.6715 13.6167 24.8421 12.4461 24.8421 11.0412C24.8421 9.63628 23.6713 8.46562 22.2666 8.46562ZM51.5337 37.2645C51.5337 35.8597 50.363 34.689 48.9581 34.689C47.5532 34.689 46.3826 35.8596 46.3826 37.2645C46.3826 38.6693 47.5532 39.8401 48.9581 39.8401C50.363 39.8401 51.5337 38.7161 51.5337 37.2645ZM51.7678 42.6496C50.363 42.6496 49.1922 43.8203 49.1922 45.2252C49.1922 46.63 50.3629 47.8007 51.7678 47.8007C53.1726 47.8007 54.3434 46.6301 54.3434 45.2252C54.3432 43.8203 53.1726 42.6496 51.7678 42.6496Z" fill="#777777"/>
<path d="M35.0972 15.6771L44.3691 24.949C45.3994 25.9792 55.6077 54.497 54.5774 55.5273L50.878 59.2267C49.8478 60.2569 48.2089 60.2569 47.1787 59.2267L26.7151 33.2373L0.772686 12.8674C-0.257562 11.8372 -0.257562 10.1983 0.772686 9.16805L4.47206 5.46867C5.50231 4.43854 34.067 14.6468 35.0972 15.6771Z" fill="#CECECE"/>
<path d="M58.8856 1.16056C61.4612 3.73612 59.1666 10.1514 56.1228 13.242L22.6412 46.6767C19.5506 49.7673 8.49929 56.6978 5.92385 54.1223C3.34841 51.5469 10.2788 40.4956 13.3695 37.405L46.8042 3.92339C49.8947 0.832765 56.31 -1.41488 58.8856 1.16056Z" fill="#EBEBED"/>
<path d="M15.2054 39.652L48.6401 6.21733C51.2624 3.59504 56.273 1.58139 59.2699 2.56479C59.0827 2.00288 58.8017 1.53454 58.4271 1.11317C55.8515 -1.46239 49.4361 0.832097 46.3455 3.92272L12.9108 37.3574C9.82019 40.4481 2.93661 51.4992 5.4652 54.0748C5.83985 54.4494 6.44861 54.6367 7.19778 54.6367C7.24474 50.6096 12.583 42.2743 15.2054 39.652Z" fill="#CECECE"/>
<path d="M16.4132 25.1362L21.7047 29.257L35.2379 15.7238L35.0974 15.5833C34.8164 15.3023 32.1941 14.2252 28.6352 12.8673C28.6352 12.8674 16.4132 25.1362 16.4132 25.1362Z" fill="#999999"/>
<path d="M30.8359 38.482L47.1318 59.2266C48.0683 60.1631 49.5668 60.21 50.597 59.4138L32.6153 36.7026L30.8359 38.482ZM23.3435 27.4307L0.491702 9.54272C-0.210745 10.573 -0.117054 11.9777 0.772657 12.8675L21.564 29.1633L23.3435 27.4307Z" fill="#FF1D1D"/>
<path d="M21.5642 29.1633L23.3436 27.4307L18.1926 23.4036L16.4132 25.1361L21.5642 29.1633Z" fill="#E41818"/>
</g>
<defs>
<clipPath id="clip0">
<rect width="60" height="60" fill="white"/>
</clipPath>
</defs>
</svg>
