<svg width="60" height="60" viewBox="0 0 60 60" fill="none" xmlns="http://www.w3.org/2000/svg">
<g clip-path="url(#clip0)">
<path d="M38.4594 19.0636C37.1202 19.0636 36.0346 17.978 36.0346 16.6387V10.3012C36.0346 9.79322 35.6212 9.3799 35.1132 9.3799H24.8867C24.3787 9.3799 23.9654 9.79322 23.9654 10.3012V16.6387C23.9654 17.978 22.8798 19.0636 21.5406 19.0636C20.2013 19.0636 19.1157 17.978 19.1157 16.6387V10.3012C19.1157 7.11912 21.7046 4.53033 24.8866 4.53033H35.1131C38.2952 4.53033 40.884 7.11924 40.884 10.3012V16.6387C40.8842 17.978 39.7986 19.0636 38.4594 19.0636Z" fill="#999999"/>
<g opacity="0.1">
<path opacity="0.1" d="M21.5406 19.0636C22.8798 19.0636 23.9654 17.9779 23.9654 16.6387V10.829H19.1157V16.6385C19.1157 17.9779 20.2013 19.0636 21.5406 19.0636Z" fill="black"/>
<path opacity="0.1" d="M36.0347 10.829V16.6385C36.0347 17.9777 37.1203 19.0633 38.4595 19.0633C39.7987 19.0633 40.8844 17.9777 40.8844 16.6385V10.829H36.0347Z" fill="black"/>
</g>
<path d="M54.7291 13.8601H5.27086C2.3598 13.8601 0 16.2199 0 19.131V48.8661C0 51.7771 2.3598 54.137 5.27086 54.137H54.7293C57.6402 54.137 60.0001 51.7772 60.0001 48.8661V19.131C60 16.2199 57.6402 13.8601 54.7291 13.8601Z" fill="#EBEBED"/>
<path d="M4.84969 48.8661V19.131C4.84969 16.22 7.20949 13.8601 10.1205 13.8601H5.27086C2.3598 13.8601 0 16.2199 0 19.131V48.8661C0 51.7771 2.3598 54.137 5.27086 54.137H10.1205C7.20949 54.1367 4.84969 51.7771 4.84969 48.8661Z" fill="#CECECE"/>
<path d="M12.9199 12.5273H9.97988C9.11773 12.5273 8.41895 13.2262 8.41895 14.0883V53.9087C8.41895 54.7709 9.11785 55.4697 9.97988 55.4697H12.9199C13.782 55.4697 14.4808 54.7707 14.4808 53.9087V14.0883C14.4808 13.2261 13.782 12.5273 12.9199 12.5273Z" fill="#999999"/>
<path d="M47.0795 12.5273H50.0195C50.8816 12.5273 51.5804 13.2262 51.5804 14.0883V53.9087C51.5804 54.7709 50.8815 55.4697 50.0195 55.4697H47.0795C46.2173 55.4697 45.5186 54.7707 45.5186 53.9087V14.0883C45.5184 13.2261 46.2173 12.5273 47.0795 12.5273Z" fill="#999999"/>
<path d="M37.5555 39.133L29.2631 42.6305C28.4616 42.9685 28.086 43.8923 28.4241 44.6939L29.979 48.3805C30.317 49.182 31.2408 49.5576 32.0423 49.2195L40.3348 45.7219C41.1363 45.384 41.5119 44.4602 41.1738 43.6586L39.6189 39.972C39.2808 39.1707 38.357 38.795 37.5555 39.133Z" fill="white"/>
<path d="M36.3138 29.1079C39.0665 29.1079 41.298 27.4999 41.298 25.5163C41.298 23.5327 39.0665 21.9247 36.3138 21.9247C33.5611 21.9247 31.3296 23.5327 31.3296 25.5163C31.3296 27.4999 33.5611 29.1079 36.3138 29.1079Z" fill="white"/>
<path d="M28.5515 35.3559L25.8387 29.2489C25.5548 28.6099 24.9503 28.1719 24.2545 28.1013L21.6323 27.8352C20.9457 27.7655 20.2735 28.0641 19.865 28.6202L18.3045 30.7444C17.8905 31.3079 17.8102 32.0503 18.0941 32.6893L20.8068 38.7963C21.2438 39.78 22.3953 40.2232 23.379 39.7862L27.5616 37.9282C28.5452 37.4912 28.9885 36.3396 28.5515 35.3559ZM22.7066 32.6354C22.1351 32.8891 21.4661 32.6318 21.2124 32.0604C20.9586 31.489 21.216 30.8201 21.7874 30.5662C22.3589 30.3124 23.0279 30.5699 23.2816 31.1413C23.5354 31.7126 23.278 32.3816 22.7066 32.6354Z" fill="#FF1D1D"/>
</g>
<defs>
<clipPath id="clip0">
<rect width="60" height="60" fill="white"/>
</clipPath>
</defs>
</svg>
