<svg width="60" height="60" viewBox="0 0 60 60" fill="none" xmlns="http://www.w3.org/2000/svg">
<g clip-path="url(#clip0)">
<path d="M57.3308 46.4579H2.66922C1.19522 46.4579 0 45.2627 0 43.7887V42.2035C0 40.729 1.19522 39.5338 2.66922 39.5338H57.3308C58.8048 39.5338 60 40.729 60 42.2035V43.7887C60 45.2627 58.8048 46.4579 57.3308 46.4579Z" fill="#CECECE"/>
<path d="M57.4132 39.5338H52.4634C53.8921 39.5338 55.0502 40.692 55.0502 42.1206V43.8711C55.0502 45.2998 53.8921 46.4579 52.4634 46.4579H57.4132C58.8419 46.4579 60 45.2998 60 43.8711V42.1206C60 40.692 58.8419 39.5338 57.4132 39.5338Z" fill="#999999"/>
<path d="M5.49268 11.1237H30V39.5338H5.49268V11.1237Z" fill="#EBEBED"/>
<path d="M26.2573 11.1237H30V39.5338H26.2573V11.1237Z" fill="#999999"/>
<path d="M31.6031 11.1237H3.89008C2.70859 11.1237 1.75049 10.1656 1.75049 8.98407V6.82709C1.75049 5.6456 2.70859 4.6875 3.89008 4.6875H31.6031C32.7846 4.6875 33.7427 5.6456 33.7427 6.82709V8.98407C33.7427 10.1656 32.7846 11.1237 31.6031 11.1237Z" fill="#FF1D1D"/>
<path d="M31.8109 4.6875H26.9819C28.0485 4.6875 28.9137 5.55222 28.9137 6.61926V9.19189C28.9137 10.2589 28.0485 11.1237 26.9819 11.1237H31.8109C32.8775 11.1237 33.7426 10.2589 33.7426 9.19189V6.6188C33.7426 5.55222 32.8775 4.6875 31.8109 4.6875Z" fill="#E41818"/>
<path d="M50.3032 39.5339H30V20.1403H50.3032C55.6586 20.1403 60 24.4817 60 29.8371C60 35.1924 55.6586 39.5339 50.3032 39.5339Z" fill="#EBEBED"/>
<path d="M50.3031 20.1403H45.3433C50.6986 20.1403 55.0401 24.4817 55.0401 29.8371C55.0401 35.1924 50.6986 39.5339 45.3433 39.5339H50.3031C55.6585 39.5339 59.9999 35.1924 59.9999 29.8371C59.9999 24.4817 55.6585 20.1403 50.3031 20.1403Z" fill="#999999"/>
<path d="M25.2195 25.7739H10.2736C9.69998 25.7739 9.23535 25.3093 9.23535 24.7357V15.9013C9.23535 15.3282 9.69998 14.8636 10.2736 14.8636H25.2195C25.7927 14.8636 26.2578 15.3282 26.2578 15.9013V24.7357C26.2573 25.3093 25.7927 25.7739 25.2195 25.7739Z" fill="white"/>
<path d="M22.5151 14.8636V25.7739H25.2196C25.7927 25.7739 26.2578 25.3093 26.2578 24.7357V15.9013C26.2578 15.3282 25.7927 14.8636 25.2196 14.8636H22.5151Z" fill="#CECECE"/>
<path d="M5.49271 35.9953H0.8107C0.363007 35.9953 0 35.6323 0 35.1846V31.6548C0 31.2071 0.363007 30.8441 0.8107 30.8441H5.49316V35.9953H5.49271Z" fill="#999999"/>
<path d="M40 12H49V21H40V12Z" fill="#CECECE"/>
<path d="M46 12H49V21H46V12Z" fill="#999999"/>
<path d="M50.1201 12.346H38.7126C38.079 12.346 37.5654 11.8324 37.5654 11.1989V9.14716C37.5654 8.51361 38.079 8 38.7126 8H50.1201C50.7541 8 51.2677 8.51361 51.2677 9.14716V11.1989C51.2677 11.8324 50.7541 12.346 50.1201 12.346Z" fill="#FF1D1D"/>
<path d="M50.7148 8H47C47.5667 8 48.0258 8.45914 48.0258 9.02631V11.3197C48.0258 11.8864 47.5667 12.346 47 12.346H50.7148C51.2815 12.346 51.7411 11.8869 51.7411 11.3197V9.02631C51.7411 8.45959 51.2815 8 50.7148 8Z" fill="#E41818"/>
<path d="M14.9346 48.6259C14.9346 52.3293 11.9326 55.3313 8.22925 55.3313C4.52594 55.3313 1.52393 52.3293 1.52393 48.6259C1.52393 44.9231 4.52594 41.9211 8.22925 41.9211C11.9326 41.9211 14.9346 44.9231 14.9346 48.6259Z" fill="#999999"/>
<path d="M8.22916 41.9211C7.5242 41.9211 6.84488 42.0305 6.2063 42.2324C8.92084 43.0902 10.8888 45.6281 10.8888 48.6259C10.8888 51.6243 8.92084 54.1621 6.2063 55.02C6.84488 55.2219 7.5242 55.3313 8.22916 55.3313C11.9325 55.3313 14.9345 52.3293 14.9345 48.6259C14.9345 44.9231 11.9325 41.9211 8.22916 41.9211Z" fill="#777777"/>
<path d="M28.3452 48.6259C28.3452 52.3293 25.3427 55.3313 21.6399 55.3313C17.9366 55.3313 14.9346 52.3293 14.9346 48.6259C14.9346 44.9231 17.9366 41.9211 21.6399 41.9211C25.3427 41.9211 28.3452 44.9231 28.3452 48.6259Z" fill="#999999"/>
<path d="M21.6399 41.9211C21.0421 41.9211 20.463 42.0003 19.9114 42.1468C22.777 42.9089 24.8886 45.5205 24.8886 48.6259C24.8886 51.7314 22.777 54.343 19.9114 55.1056C20.463 55.2521 21.0421 55.3313 21.6399 55.3313C25.3432 55.3313 28.3452 52.3293 28.3452 48.6259C28.3452 44.9231 25.3432 41.9211 21.6399 41.9211Z" fill="#777777"/>
<path d="M19.9425 51.6897H9.92667C8.45724 51.6897 7.2666 50.4986 7.2666 49.0292C7.2666 47.5602 8.45724 46.3691 9.92667 46.3691H19.9425C21.412 46.3691 22.6031 47.5602 22.6031 49.0292C22.6031 50.4986 21.412 51.6897 19.9425 51.6897Z" fill="#EBEBED"/>
<path d="M19.9424 46.3691H15.8706C17.34 46.3691 18.5311 47.5602 18.5311 49.0292C18.5311 50.4986 17.34 51.6897 15.8706 51.6897H19.9424C21.4118 51.6897 22.6029 50.4986 22.6029 49.0292C22.6029 47.5602 21.4118 46.3691 19.9424 46.3691Z" fill="#CECECE"/>
<path d="M45.0654 48.6259C45.0654 52.3293 42.0634 55.3313 38.3601 55.3313C34.6573 55.3313 31.6548 52.3293 31.6548 48.6259C31.6548 44.9231 34.6573 41.9211 38.3601 41.9211C42.0634 41.9211 45.0654 44.9231 45.0654 48.6259Z" fill="#999999"/>
<path d="M38.3603 41.9211C37.6553 41.9211 36.976 42.0305 36.3374 42.2324C39.0519 43.0902 41.0199 45.6281 41.0199 48.6259C41.0199 51.6243 39.0519 54.1621 36.3374 55.02C36.976 55.2219 37.6553 55.3313 38.3603 55.3313C42.0636 55.3313 45.0656 52.3293 45.0656 48.6259C45.0656 44.9231 42.0636 41.9211 38.3603 41.9211Z" fill="#777777"/>
<path d="M58.4761 48.6259C58.4761 52.3293 55.4741 55.3313 51.7708 55.3313C48.0674 55.3313 45.0654 52.3293 45.0654 48.6259C45.0654 44.9231 48.0674 41.9211 51.7708 41.9211C55.4741 41.9211 58.4761 44.9231 58.4761 48.6259Z" fill="#999999"/>
<path d="M51.7708 41.9211C51.1729 41.9211 50.5939 42.0003 50.0427 42.1468C52.9079 42.9089 55.0195 45.5205 55.0195 48.6259C55.0195 51.7314 52.9079 54.343 50.0427 55.1056C50.5939 55.2521 51.1729 55.3313 51.7708 55.3313C55.4741 55.3313 58.4761 52.3293 58.4761 48.6259C58.4761 44.9231 55.4741 41.9211 51.7708 41.9211Z" fill="#777777"/>
<path d="M50.0734 51.6897H40.0575C38.5881 51.6897 37.397 50.4986 37.397 49.0292C37.397 47.5602 38.5881 46.3691 40.0575 46.3691H50.0734C51.5428 46.3691 52.7334 47.5602 52.7334 49.0292C52.7334 50.4986 51.5428 51.6897 50.0734 51.6897Z" fill="#EBEBED"/>
<path d="M50.0733 46.3691H46.0015C47.4709 46.3691 48.6615 47.5602 48.6615 49.0292C48.6615 50.4986 47.4709 51.6897 46.0015 51.6897H50.0733C51.5427 51.6897 52.7333 50.4986 52.7333 49.0292C52.7333 47.5602 51.5427 46.3691 50.0733 46.3691Z" fill="#CECECE"/>
</g>
<defs>
<clipPath id="clip0">
<rect width="60" height="60" fill="white"/>
</clipPath>
</defs>
</svg>
